:FULLY-SPECIFIED
:FORCE-ALL-JOINTS-BE-3DOF
:DEGREES
68
root 6.15185 16.7827 -27.7526 10.5126 1.95996 -4.47846
lfemur -31.7434 7.36013 -14.2047
ltibia 42.0621 -0 0
lfoot -25.0108 4.28851 -0.000675535
ltoes 25.7748 -0 0
rfemur -14.3512 0.726929 21.778
rtibia 28.3517 -0 0
rfoot -27.6466 -17.9167 -0.00264508
rtoes -1.90799 0 0
lowerback -4.11975 3.19174 1.96578
upperback -1.83338 4.18135 0.362789
thorax 0.554017 2.08384 -0.547728
lowerneck -10.1019 -2.77785 3.14591
upperneck -4.41941 -3.98604 1.37165
head 0.257333 -2.01105 -0.214548
lclavicle 4.20509e-15 1.16362e-14 5.83072e-32
lhumerus -42.2146 -10.177 93.3987
lradius 43.086 -0 0
lwrist 8.28536 0 0
lhand -11.3898 2.74444 -0.0019411
lfingers 7.12502 -0 0
lthumb 14.6449 32.2068 -0.00196553
rclavicle 4.20509e-15 1.16362e-14 5.83072e-32
rhumerus -38.3949 0.278167 -89.623
rradius 42.1342 -0 0
rwrist 8.67737 0 0
rhand -24.7208 -20.8765 -0.00593857
rfingers 7.12502 -0 0
rthumb 1.78123 -50.8438 -0.00561439
69
root 6.16051 16.7782 -27.7399 10.5232 2.09757 -4.5733
lfemur -32.1731 7.61229 -14.0128
ltibia 42.3795 -0 0
lfoot -24.6152 4.288 -0.000654718
ltoes 25.413 -0 0
rfemur -14.2583 0.503476 21.8614
rtibia 28.2731 -0 0
rfoot -27.6686 -17.8814 -0.00256369
rtoes -2.4135 0 0
lowerback -4.05611 3.22422 2.05038
upperback -1.83691 4.22321 0.370348
thorax 0.520804 2.10423 -0.588366
lowerneck -10.1252 -2.82609 3.15349
upperneck -4.47524 -4.05006 1.37905
head 0.242976 -2.04367 -0.215161
lclavicle 3.32177e-15 1.16556e-14 5.65131e-32
lhumerus -42.2488 -10.0659 93.2808
lradius 43.1945 -0 0
lwrist 8.34888 0 0
lhand -11.3694 2.71659 -0.00188137
lfingers 7.12502 -0 0
lthumb 14.6646 32.1776 -0.00190505
rclavicle 3.32177e-15 1.16556e-14 5.65131e-32
rhumerus -38.3254 0.483618 -89.616
rradius 42.2588 -0 0
rwrist 8.58827 0 0
rhand -24.6436 -20.8991 -0.00575581
rfingers 7.12502 -0 0
rthumb 1.85575 -50.8659 -0.0054416
70
root 6.16917 16.7736 -27.7272 10.5336 2.2352 -4.66813
lfemur -32.6022 7.86588 -13.8228
ltibia 42.6968 -0 0
lfoot -24.2196 4.2875 -0.000630434
ltoes 25.0511 -0 0
rfemur -14.1658 0.279887 21.9444
rtibia 28.1944 -0 0
rfoot -27.6906 -17.846 -0.00246874
rtoes -2.91901 0 0
lowerback -3.99241 3.25661 2.13501
upperback -1.84044 4.26507 0.377906
thorax 0.487576 2.1246 -0.629017
lowerneck -10.1486 -2.87434 3.16109
upperneck -4.53108 -4.11408 1.38652
head 0.228619 -2.07629 -0.215765
lclavicle 2.43845e-15 1.1675e-14 5.44201e-32
lhumerus -42.2832 -9.95476 93.1629
lradius 43.303 -0 0
lwrist 8.41239 0 0
lhand -11.3489 2.68873 -0.00181168
lfingers 7.12502 -0 0
lthumb 14.6844 32.1483 -0.00183449
rclavicle 2.43845e-15 1.1675e-14 5.44201e-32
rhumerus -38.2559 0.68906 -89.6087
rradius 42.3835 -0 0
rwrist 8.49917 0 0
rhand -24.5665 -20.9217 -0.00554259
rfingers 7.12502 -0 0
rthumb 1.93027 -50.8881 -0.00524003
71
root 6.17783 16.7691 -27.7145 10.5437 2.37284 -4.76293
lfemur -33.0308 8.12086 -13.6345
ltibia 43.0142 -0 0
lfoot -23.824 4.287 -0.000602684
ltoes 24.6893 -0 0
rfemur -14.0736 0.0561659 22.0271
rtibia 28.1157 -0 0
rfoot -27.7126 -17.8107 -0.00236021
rtoes -3.42452 0 0
lowerback -3.92867 3.2889 2.21968
upperback -1.84396 4.30693 0.385461
thorax 0.454333 2.14495 -0.66968
lowerneck -10.172 -2.92258 3.16871
upperneck -4.58694 -4.17809 1.39405
head 0.214263 -2.10891 -0.216362
lclavicle 1.55513e-15 1.16944e-14 5.2028e-32
lhumerus -42.3178 -9.84373 93.045
lradius 43.4115 -0 0
lwrist 8.4759 0 0
lhand -11.3284 2.66088 -0.00173205
lfingers 7.12502 -0 0
lthumb 14.7041 32.119 -0.00175385
rclavicle 1.55513e-15 1.16944e-14 5.2028e-32
rhumerus -38.1863 0.894492 -89.6011
rradius 42.5081 -0 0
rwrist 8.41007 0 0
rhand -24.4893 -20.9444 -0.00529892
rfingers 7.12502 -0 0
rthumb 2.00479 -50.9102 -0.00500966
72
root 6.18649 16.7646 -27.7018 10.5536 2.51051 -4.85772
lfemur -33.4587 8.37723 -13.4481
ltibia 43.3315 -0 0
lfoot -23.4284 4.2865 -0.00057147
ltoes 24.3274 -0 0
rfemur -13.9817 -0.167688 22.1094
rtibia 28.037 -0 0
rfoot -27.7346 -17.7754 -0.00223813
rtoes -3.93003 0 0
lowerback -3.86488 3.3211 2.30439
upperback -1.84747 4.34879 0.393014
thorax 0.421075 2.16528 -0.710355
lowerneck -10.1953 -2.97082 3.17635
upperneck -4.6428 -4.24209 1.40164
head 0.199906 -2.14153 -0.21695
lclavicle 6.71815e-16 1.17138e-14 4.93369e-32
lhumerus -42.3526 -9.73277 92.9271
lradius 43.52 -0 0
lwrist 8.53941 0 0
lhand -11.3079 2.63302 -0.00164246
lfingers 7.12502 -0 0
lthumb 14.7238 32.0897 -0.00166313
rclavicle 6.71815e-16 1.17138e-14 4.93369e-32
rhumerus -38.1167 1.09992 -89.5933
rradius 42.6328 -0 0
rwrist 8.32097 0 0
rhand -24.4121 -20.967 -0.00502479
rfingers 7.12502 -0 0
rthumb 2.07931 -50.9323 -0.0047505
73
root 6.19515 16.76 -27.689 10.5633 2.64818 -4.9525
lfemur -33.8862 8.63497 -13.2634
ltibia 43.6489 -0 0
lfoot -23.0328 4.286 -0.000536793
ltoes 23.9656 -0 0
rfemur -13.8901 -0.391674 22.1913
rtibia 27.9584 -0 0
rfoot -27.7566 -17.74 -0.00210248
rtoes -4.43554 0 0
lowerback -3.80105 3.35321 2.38914
upperback -1.85098 4.39065 0.400565
thorax 0.387803 2.18558 -0.751043
lowerneck -10.2187 -3.01905 3.18401
upperneck -4.69868 -4.30608 1.4093
head 0.185549 -2.17416 -0.21753
lclavicle -2.11505e-16 1.17331e-14 4.63468e-32
lhumerus -42.3876 -9.62188 92.8091
lradius 43.6285 -0 0
lwrist 8.60292 0 0
lhand -11.2875 2.60517 -0.00154291
lfingers 7.12502 -0 0
lthumb 14.7435 32.0605 -0.00156233
rclavicle -2.11505e-16 1.17331e-14 4.63468e-32
rhumerus -38.0471 1.30533 -89.5853
rradius 42.7574 -0 0
rwrist 8.23187 0 0
rhand -24.335 -20.9896 -0.00472021
rfingers 7.12502 -0 0
rthumb 2.15383 -50.9545 -0.00446255
74
root 6.20382 16.7555 -27.6763 10.5728 2.78588 -5.04727
lfemur -34.313 8.89406 -13.0806
ltibia 43.9662 -0 0
lfoot -22.6372 4.2855 -0.000498654
ltoes 23.6037 -0 0
rfemur -13.7988 -0.61579 22.2729
rtibia 27.8797 -0 0
rfoot -27.7786 -17.7047 -0.00195327
rtoes -4.94105 0 0
lowerback -3.73716 3.38521 2.47392
upperback -1.85448 4.43252 0.408113
thorax 0.354516 2.20586 -0.791742
lowerneck -10.2421 -3.06728 3.19169
upperneck -4.75458 -4.37007 1.41702
head 0.171192 -2.20678 -0.218102
lclavicle -1.09482e-15 1.17525e-14 4.30576e-32
lhumerus -42.4229 -9.51106 92.6911
lradius 43.7369 -0 0
lwrist 8.66643 0 0
lhand -11.267 2.57731 -0.00143341
lfingers 7.12502 -0 0
lthumb 14.7633 32.0312 -0.00145145
rclavicle -1.09482e-15 1.17525e-14 4.30576e-32
rhumerus -37.9775 1.51073 -89.577
rradius 42.8821 -0 0
rwrist 8.14277 0 0
rhand -24.2578 -21.0122 -0.00438518
rfingers 7.12502 -0 0
rthumb 2.22835 -50.9766 -0.00414581
75
root 6.21248 16.751 -27.6636 10.582 2.92359 -5.14202
lfemur -34.7394 9.1545 -12.8997
ltibia 44.2835 -0 0
lfoot -22.2416 4.28499 -0.000457056
ltoes 23.2419 -0 0
rfemur -13.7079 -0.840036 22.3541
rtibia 27.801 -0 0
rfoot -27.8005 -17.6694 -0.00179049
rtoes -5.44656 0 0
lowerback -3.67323 3.41713 2.55874
upperback -1.85798 4.47438 0.41566
thorax 0.321214 2.22611 -0.832454
lowerneck -10.2655 -3.11551 3.19939
upperneck -4.81048 -4.43404 1.42481
head 0.156836 -2.2394 -0.218666
lclavicle -1.97814e-15 1.17719e-14 3.94695e-32
lhumerus -42.4584 -9.40031 92.573
lradius 43.8454 -0 0
lwrist 8.72995 0 0
lhand -11.2465 2.54946 -0.00131396
lfingers 7.12502 -0 0
lthumb 14.783 32.0019 -0.0013305
rclavicle -1.97814e-15 1.17719e-14 3.94695e-32
rhumerus -37.9078 1.71613 -89.5684
rradius 43.0067 -0 0
rwrist 8.05368 0 0
rhand -24.1807 -21.0348 -0.0040197
rfingers 7.12502 -0 0
rthumb 2.30286 -50.9987 -0.00380029
76
root 6.22114 16.7464 -27.6509 10.591 3.06131 -5.23677
lfemur -35.1652 9.41625 -12.7205
ltibia 44.6009 -0 0
lfoot -21.846 4.28449 -0.000412
ltoes 22.88 -0 0
rfemur -13.6173 -1.06441 22.435
rtibia 27.7224 -0 0
rfoot -27.8225 -17.634 -0.00161415
rtoes -5.95207 0 0
lowerback -3.60924 3.44894 2.64359
upperback -1.86147 4.51624 0.423204
thorax 0.287897 2.24634 -0.873177
lowerneck -10.2889 -3.16374 3.2071
upperneck -4.8664 -4.49801 1.43265
head 0.142479 -2.27202 -0.219222
lclavicle -2.86146e-15 1.17913e-14 3.55824e-32
lhumerus -42.4941 -9.28963 92.455
lradius 43.9539 -0 0
lwrist 8.79346 0 0
lhand -11.226 2.52161 -0.00118455
lfingers 7.12502 -0 0
lthumb 14.8027 31.9726 -0.00119946
rclavicle -2.86146e-15 1.17913e-14 3.55824e-32
rhumerus -37.838 1.92151 -89.5596
rradius 43.1313 -0 0
rwrist 7.96458 0 0
rhand -24.1035 -21.0574 -0.00362378
rfingers 7.12502 -0 0
rthumb 2.37738 -51.0209 -0.00342597
77
root 6.2298 16.7419 -27.6382 10.5997 3.19905 -5.3315
lfemur -35.5905 9.67931 -12.5432
ltibia 44.9182 -0 0
lfoot -21.4504 4.28399 -0.000363489
ltoes 22.5182 -0 0
rfemur -13.5269 -1.28891 22.5155
rtibia 27.6437 -0 0
rfoot -27.8445 -17.5987 -0.00142424
rtoes -6.45758 0 0
lowerback -3.54521 3.48067 2.72849
upperback -1.86496 4.5581 0.430746
thorax 0.254566 2.26655 -0.913913
lowerneck -10.3123 -3.21196 3.21484
upperneck -4.92233 -4.56197 1.44056
head 0.128123 -2.30465 -0.219769
lclavicle -3.74478e-15 1.18107e-14 3.13962e-32
lhumerus -42.53 -9.17903 92.3369
lradius 44.0624 -0 0
lwrist 8.85697 0 0
lhand -11.2055 2.49375 -0.00104519
lfingers 7.12502 -0 0
lthumb 14.8224 31.9433 -0.00105834
rclavicle -3.74478e-15 1.18107e-14 3.13962e-32
rhumerus -37.7683 2.12688 -89.5505
rradius 43.2559 -0 0
rwrist 7.87549 0 0
rhand -24.0264 -21.08 -0.00319741
rfingers 7.12502 -0 0
rthumb 2.4519 -51.043 -0.00302288
78
root 6.23846 16.7374 -27.6255 10.6083 3.3368 -5.42623
lfemur -36.0153 9.94366 -12.3678
ltibia 45.2356 -0 0
lfoot -21.0549 4.28349 -0.000311525
ltoes 22.1563 -0 0
rfemur -13.4369 -1.51354 22.5957
rtibia 27.565 -0 0
rfoot -27.8665 -17.5634 -0.00122077
rtoes -6.9631 0 0
lowerback -3.48113 3.51229 2.81341
upperback -1.86844 4.59997 0.438286
thorax 0.221221 2.28673 -0.954661
lowerneck -10.3358 -3.26018 3.2226
upperneck -4.97828 -4.62592 1.44854
head 0.113766 -2.33727 -0.220309
lclavicle -4.6281e-15 1.18301e-14 2.6911e-32
lhumerus -42.5662 -9.0685 92.2187
lradius 44.1709 -0 0
lwrist 8.92047 0 0
lhand -11.1851 2.4659 -0.000895873
lfingers 7.12502 -0 0
lthumb 14.8422 31.9141 -0.00090715
rclavicle -4.6281e-15 1.18301e-14 2.6911e-32
rhumerus -37.6985 2.33224 -89.5412
rradius 43.3806 -0 0
rwrist 7.7864 0 0
rhand -23.9492 -21.1027 -0.00274059
rfingers 7.12502 -0 0
rthumb 2.52641 -51.0651 -0.002591
79
root 6.24712 16.7328 -27.6128 10.6166 3.47457 -5.52095
lfemur -36.4397 10.2093 -12.1942
ltibia 45.5529 -0 0
lfoot -20.6593 4.28299 -0.00025611
ltoes 21.7945 -0 0
rfemur -13.3472 -1.73829 22.6755
rtibia 27.4864 -0 0
rfoot -27.8885 -17.528 -0.00100374
rtoes -7.46861 0 0
lowerback -3.41701 3.54383 2.89838
upperback -1.87192 4.64183 0.445824
thorax 0.187861 2.30689 -0.995421
lowerneck -10.3592 -3.30839 3.23038
upperneck -5.03424 -4.68986 1.45657
head 0.0994095 -2.36989 -0.22084
lclavicle -5.51142e-15 1.18495e-14 2.21268e-32
lhumerus -42.6025 -8.95804 92.1006
lradius 44.2793 -0 0
lwrist 8.98398 0 0
lhand -11.1646 2.43804 -0.000736604
lfingers 7.12502 -0 0
lthumb 14.8619 31.8848 -0.000745876
rclavicle -5.51142e-15 1.18495e-14 2.21268e-32
rhumerus -37.6286 2.53759 -89.5317
rradius 43.5052 -0 0
rwrist 7.69731 0 0
rhand -23.8721 -21.1253 -0.00225334
rfingers 7.12502 -0 0
rthumb 2.60092 -51.0873 -0.00213035
80
root 6.25578 16.7283 -27.6 10.6247 3.61235 -5.61566
lfemur -36.8635 10.4762 -12.0224
ltibia 45.8703 -0 0
lfoot -20.2637 4.28249 -0.000197247
ltoes 21.4326 -0 0
rfemur -13.2578 -1.96317 22.755
rtibia 27.4077 -0 0
rfoot -27.9105 -17.4927 -0.00077315
rtoes -7.97412 0 0
lowerback -3.35284 3.57526 2.98338
upperback -1.87539 4.6837 0.45336
thorax 0.154486 2.32702 -1.03619
lowerneck -10.3826 -3.3566 3.23818
upperneck -5.09021 -4.75379 1.46467
head 0.0850529 -2.40251 -0.221363
lclavicle -6.39474e-15 1.18689e-14 1.70436e-32
lhumerus -42.6391 -8.84766 91.9823
lradius 44.3878 -0 0
lwrist 9.04749 0 0
lhand -11.1441 2.41019 -0.000567383
lfingers 7.12502 -0 0
lthumb 14.8816 31.8555 -0.000574525
rclavicle -6.39474e-15 1.18689e-14 1.70436e-32
rhumerus -37.5587 2.74293 -89.5219
rradius 43.6298 -0 0
rwrist 7.60822 0 0
rhand -23.7949 -21.1479 -0.00173565
rfingers 7.12502 -0 0
rthumb 2.67543 -51.1094 -0.00164092
